HIERARCHY
ROOT Walk
{
	OFFSET 0.000000 0.000000 0.000000
	CHANNELS 6 Xposition Yposition Zposition Xrotation Yrotation Zrotation
	JOINT BR_Root
	{
		OFFSET -0.565402 147.768600 -43.209831
		CHANNELS 3 Xrotation Yrotation Zrotation
		JOINT Hip
		{
			OFFSET -1.425131 -1.857498 0.000393
			CHANNELS 3 Xrotation Yrotation Zrotation
			JOINT B_L_Leg_1
			{
				OFFSET 15.140772 -18.123024 -21.768925
				CHANNELS 3 Xrotation Yrotation Zrotation
				JOINT B_L_Leg_2
				{
					OFFSET 2.655252 -37.649261 -3.475853
					CHANNELS 3 Xrotation Yrotation Zrotation
					JOINT B_L_Leg_3
					{
						OFFSET 1.213967 -30.892952 -38.831802
						CHANNELS 3 Xrotation Yrotation Zrotation
						JOINT B_L_Leg_4
						{
							OFFSET -0.793737 -36.906635 -7.562157
							CHANNELS 3 Xrotation Yrotation Zrotation
							JOINT B_L_Leg_5
							{
								OFFSET 0.000618 -14.329140 0.130951
								CHANNELS 3 Xrotation Yrotation Zrotation
								JOINT B_L_Leg______END
								{
									OFFSET 0.000500 -7.398694 2.835327
									CHANNELS 3 Xrotation Yrotation Zrotation
									End Site
									{
										OFFSET -0.000343 7.923367 -0.000954
									}
								}
							}
						}
					}
				}
			}
			JOINT Tail
			{
				OFFSET -3.291408 -2.424103 -49.385670
				CHANNELS 3 Xrotation Yrotation Zrotation
				JOINT Tail_1
				{
					OFFSET -0.899897 -2.217148 -3.489540
					CHANNELS 3 Xrotation Yrotation Zrotation
					JOINT Tail_2
					{
						OFFSET -0.977027 -2.919632 -3.083633
						CHANNELS 3 Xrotation Yrotation Zrotation
						JOINT Tail_3
						{
							OFFSET -1.185277 -3.752075 -3.141411
							CHANNELS 3 Xrotation Yrotation Zrotation
							JOINT Tail_4
							{
								OFFSET -1.990643 -7.117737 -4.426018
								CHANNELS 3 Xrotation Yrotation Zrotation
								JOINT Tail_5
								{
									OFFSET -1.997871 -9.546356 -4.127518
									CHANNELS 3 Xrotation Yrotation Zrotation
									JOINT Tail_6
									{
										OFFSET -1.178740 -12.952095 -3.734299
										CHANNELS 3 Xrotation Yrotation Zrotation
										JOINT Tail_7
										{
											OFFSET -0.808064 -17.252457 -2.168289
											CHANNELS 3 Xrotation Yrotation Zrotation
											JOINT Tail_8
											{
												OFFSET -3.165233 -21.494125 0.586266
												CHANNELS 3 Xrotation Yrotation Zrotation
												JOINT Tail_9
												{
													OFFSET -4.487404 -18.915901 2.367020
													CHANNELS 3 Xrotation Yrotation Zrotation
													JOINT Tail___CAP
													{
														OFFSET -7.447727 -20.265373 5.007713
														CHANNELS 3 Xrotation Yrotation Zrotation
														End Site
														{
															OFFSET 6.940163 19.755226 -7.266106
														}
													}
												}
											}
										}
									}
								}
							}
						}
					}
				}
			}
			JOINT B_R_Leg_1
			{
				OFFSET -18.337234 -18.123848 -19.153191
				CHANNELS 3 Xrotation Yrotation Zrotation
				JOINT B_R_Leg_2
				{
					OFFSET -7.308641 -30.355675 21.487434
					CHANNELS 3 Xrotation Yrotation Zrotation
					JOINT B_R_Leg_3
					{
						OFFSET 10.319277 -44.625408 -19.127075
						CHANNELS 3 Xrotation Yrotation Zrotation
						JOINT B_R_Leg_4
						{
							OFFSET -0.035845 -33.134872 17.944122
							CHANNELS 3 Xrotation Yrotation Zrotation
							JOINT B_R_Leg_5
							{
								OFFSET -0.000097 -11.649342 8.344688
								CHANNELS 3 Xrotation Yrotation Zrotation
								JOINT B_R_Leg______END
								{
									OFFSET -0.000095 -7.399056 2.834351
									CHANNELS 3 Xrotation Yrotation Zrotation
									End Site
									{
										OFFSET -0.000143 -7.923359 -0.000095
									}
								}
							}
						}
					}
				}
			}
		}
		JOINT Spine_1
		{
			OFFSET -1.265600 -2.463928 0.000477
			CHANNELS 3 Xrotation Yrotation Zrotation
			JOINT Spine_2
			{
				OFFSET 1.772684 -3.073135 20.824728
				CHANNELS 3 Xrotation Yrotation Zrotation
				JOINT Spine_3
				{
					OFFSET -0.197352 -1.411667 21.552061
					CHANNELS 3 Xrotation Yrotation Zrotation
					JOINT Spine_4
					{
						OFFSET -1.622275 0.417542 22.011095
						CHANNELS 3 Xrotation Yrotation Zrotation
						JOINT Spine_5
						{
							OFFSET -0.337100 0.360855 20.389105
							CHANNELS 3 Xrotation Yrotation Zrotation
							JOINT F_L_Leg_1
							{
								OFFSET 7.562794 -14.209923 6.913445
								CHANNELS 3 Xrotation Yrotation Zrotation
								JOINT F_L_Leg_2
								{
									OFFSET 3.653290 -9.713135 19.789536
									CHANNELS 3 Xrotation Yrotation Zrotation
									JOINT F_L_Leg_3
									{
										OFFSET 3.129760 -29.629776 -15.452511
										CHANNELS 3 Xrotation Yrotation Zrotation
										JOINT F_L_Leg_4
										{
											OFFSET 1.997342 -20.652466 35.746304
											CHANNELS 3 Xrotation Yrotation Zrotation
											JOINT F_L_Leg_5
											{
												OFFSET 2.906321 -25.733891 -17.616318
												CHANNELS 3 Xrotation Yrotation Zrotation
												JOINT F_L_Leg_6
												{
													OFFSET -0.000147 -8.685799 -10.359711
													CHANNELS 3 Xrotation Yrotation Zrotation
													JOINT F_L_Leg______END
													{
														OFFSET -0.000368 -1.894836 -8.464405
														CHANNELS 3 Xrotation Yrotation Zrotation
														End Site
														{
															OFFSET 0.000549 -1.955091 8.450691
														}
													}
												}
											}
										}
									}
								}
							}
							JOINT Neck_1
							{
								OFFSET -0.218921 -12.511490 20.293972
								CHANNELS 3 Xrotation Yrotation Zrotation
								JOINT Neck_2
								{
									OFFSET -0.324228 14.222534 8.601421
									CHANNELS 3 Xrotation Yrotation Zrotation
									JOINT Neck_3
									{
										OFFSET -0.266288 11.074081 6.798096
										CHANNELS 3 Xrotation Yrotation Zrotation
										JOINT Neck_4
										{
											OFFSET -0.286952 12.366043 8.220825
											CHANNELS 3 Xrotation Yrotation Zrotation
											JOINT Neck_5
											{
												OFFSET -0.134028 8.285522 9.317848
												CHANNELS 3 Xrotation Yrotation Zrotation
												JOINT Neck_6
												{
													OFFSET -0.190317 5.797424 10.739159
													CHANNELS 3 Xrotation Yrotation Zrotation
													JOINT Head
													{
														OFFSET -0.461128 1.085144 13.911362
														CHANNELS 3 Xrotation Yrotation Zrotation
														JOINT Ear_L_1
														{
															OFFSET 8.561840 6.185104 0.637024
															CHANNELS 3 Xrotation Yrotation Zrotation
															JOINT Ear_L_2
															{
																OFFSET 2.997534 4.938507 2.184265
																CHANNELS 3 Xrotation Yrotation Zrotation
																JOINT Ear_L_______END
																{
																	OFFSET 4.636709 5.257294 4.398689
																	CHANNELS 3 Xrotation Yrotation Zrotation
																	End Site
																	{
																		OFFSET 4.893785 6.672562 0.120506
																	}
																}
															}
														}
														JOINT Upper_Lip
														{
															OFFSET 0.179039 -33.419113 27.602631
															CHANNELS 3 Xrotation Yrotation Zrotation
															JOINT Upper_Lip________END
															{
																OFFSET -0.012485 -7.542999 5.682602
																CHANNELS 3 Xrotation Yrotation Zrotation
																End Site
																{
																	OFFSET -0.066871 9.443314 0.091080
																}
															}
														}
														JOINT Jaw
														{
															OFFSET 0.025005 -13.156921 0.462715
															CHANNELS 3 Xrotation Yrotation Zrotation
															JOINT Lower_Lip
															{
																OFFSET 0.271057 -26.655716 20.812279
																CHANNELS 3 Xrotation Yrotation Zrotation
																JOINT Lower_Lip_________END
																{
																	OFFSET -0.015864 -5.854172 4.949554
																	CHANNELS 3 Xrotation Yrotation Zrotation
																	End Site
																	{
																		OFFSET -0.054281 7.665573 0.073761
																	}
																}
															}
														}
														JOINT Ear_R_1
														{
															OFFSET -8.659555 6.065094 0.439758
															CHANNELS 3 Xrotation Yrotation Zrotation
															JOINT Ear_R_2
															{
																OFFSET -3.115387 4.896042 2.113426
																CHANNELS 3 Xrotation Yrotation Zrotation
																JOINT Ear_R_______END
																{
																	OFFSET -4.809237 5.192245 4.289680
																	CHANNELS 3 Xrotation Yrotation Zrotation
																	End Site
																	{
																		OFFSET 4.987882 -6.603821 -0.006195
																	}
																}
															}
														}
													}
												}
											}
										}
									}
								}
							}
							JOINT F_R_Leg_1
							{
								OFFSET -7.526427 -14.346596 6.666397
								CHANNELS 3 Xrotation Yrotation Zrotation
								JOINT F_R_Leg_2
								{
									OFFSET -7.077706 -18.523315 10.301136
									CHANNELS 3 Xrotation Yrotation Zrotation
									JOINT F_R_Leg_3
									{
										OFFSET -2.818224 -19.846863 -26.919310
										CHANNELS 3 Xrotation Yrotation Zrotation
										JOINT F_R_Leg_4
										{
											OFFSET 1.832611 -41.260101 1.601961
											CHANNELS 3 Xrotation Yrotation Zrotation
											JOINT F_R_Leg_5
											{
												OFFSET 1.096710 -30.303551 -7.842762
												CHANNELS 3 Xrotation Yrotation Zrotation
												JOINT F_R_Leg_6
												{
													OFFSET -0.000933 -9.996563 9.101475
													CHANNELS 3 Xrotation Yrotation Zrotation
													JOINT F_R_Leg______END
													{
														OFFSET -0.000898 -7.818611 3.755756
														CHANNELS 3 Xrotation Yrotation Zrotation
														End Site
														{
															OFFSET -0.001207 -8.673889 0.002007
														}
													}
												}
											}
										}
									}
								}
							}
							JOINT Reins_Hold
							{
								OFFSET -0.867753 40.101059 -15.018847
								CHANNELS 3 Xrotation Yrotation Zrotation
								End Site
								{
									OFFSET 0.525795 24.963455 -4.806616
								}
							}
						}
						JOINT LegStrap_L_01
						{
							OFFSET 29.620516 -10.166428 -7.897346
							CHANNELS 3 Xrotation Yrotation Zrotation
							JOINT LegStrap_L_02
							{
								OFFSET 1.448893 -2.586487 -0.139580
								CHANNELS 3 Xrotation Yrotation Zrotation
								JOINT LegStrap_L_03
								{
									OFFSET 1.644304 -6.919785 -1.106855
									CHANNELS 3 Xrotation Yrotation Zrotation
									JOINT LegStrap_L_04
									{
										OFFSET 1.482115 -4.847450 0.327724
										CHANNELS 3 Xrotation Yrotation Zrotation
										JOINT LegStrap_L_05
										{
											OFFSET 2.699516 -5.402382 -0.283574
											CHANNELS 3 Xrotation Yrotation Zrotation
											JOINT LegStrap_L_06_Twist
											{
												OFFSET 3.180824 -6.815361 -2.016232
												CHANNELS 3 Xrotation Yrotation Zrotation
												End Site
												{
													OFFSET -0.187565 7.029739 3.343580
												}
											}
										}
									}
								}
							}
						}
						JOINT LegStrap_R_01
						{
							OFFSET -29.157169 -10.698532 -8.859707
							CHANNELS 3 Xrotation Yrotation Zrotation
							JOINT LegStrap_R_02
							{
								OFFSET -1.972519 -1.747467 -0.059349
								CHANNELS 3 Xrotation Yrotation Zrotation
								JOINT LegStrap_R_03
								{
									OFFSET -1.067455 -7.223610 -0.281258
									CHANNELS 3 Xrotation Yrotation Zrotation
									JOINT LegStrap_R_04
									{
										OFFSET -1.425770 -7.118042 -0.611075
										CHANNELS 3 Xrotation Yrotation Zrotation
										JOINT LegStrap_R_05
										{
											OFFSET -0.992481 -4.636345 -1.384764
											CHANNELS 3 Xrotation Yrotation Zrotation
											JOINT LegStrap_R_06_Twist
											{
												OFFSET -1.403381 -5.738312 -3.562224
												CHANNELS 3 Xrotation Yrotation Zrotation
												End Site
												{
													OFFSET 6.719440 -1.409866 0.669691
												}
											}
										}
									}
								}
							}
						}
					}
				}
			}
		}
	}
}
MOTION
Frames: 5
Frame Time: 0.033333
0.000000 0.000000 0.000000 0.000007 -0.000000 -0.000000 -0.000039 0.000031 0.000051 0.945839 -7.392097 0.045253 -40.151933 -1.392135 -3.308371 27.038311 2.249721 -2.995489 -20.082937 1.454217 -2.976090 -4.938426 2.421582 12.326557 36.298497 0.000767 -0.002623 0.000011 -0.000000 -0.000000 1.739803 -14.310977 7.698585 7.768997 1.401282 -3.849470 -0.667860 -0.571501 1.065745 -3.634118 0.061139 1.448495 -6.559930 0.996971 1.046184 -3.970038 1.068129 -1.901696 1.738182 0.146856 -1.398648 5.865537 -0.486299 1.557643 6.679405 -0.752112 5.423975 6.337389 -0.408787 8.420774 0.000003 -0.000001 -0.000008 26.785265 27.181402 -15.941136 12.185133 2.653279 15.712369 -33.895265 -0.907761 -4.624564 23.985763 -17.207401 1.181852 3.586651 -0.000069 -0.000046 -0.000011 0.000000 0.000000 4.187274 -6.726169 -1.203158 -7.819714 7.076903 0.989271 -3.806256 6.872362 -0.151380 5.720995 -5.632530 0.730612 -0.000000 -0.000022 -0.000013 40.670706 8.406280 -2.765170 -5.205073 -8.637759 4.037128 35.321582 -2.386800 -4.262425 -80.311427 1.006714 -1.517329 -33.427175 -6.604322 0.495951 -58.368577 -0.003809 0.001394 0.000016 0.000000 0.000000 0.212252 0.007867 -0.001499 -4.287043 -0.039728 -0.057355 -1.397237 -0.031692 -0.020133 2.228239 -0.065713 0.077094 0.762033 0.173324 -0.055798 -0.000056 -0.000006 -0.000009 -1.857791 -0.171347 -0.122086 -0.000082 0.000075 0.000095 0.000073 -0.000025 -0.000067 0.000000 -0.000000 -0.000004 -0.000007 0.000054 0.000048 -0.000000 -0.000000 0.000000 -0.000004 0.000052 0.000048 0.000004 -0.000000 -0.000001 0.000007 0.000000 0.000000 -0.000047 0.000001 0.000108 0.000048 0.000089 -0.000077 -0.000010 -0.000006 0.000001 -20.899783 1.955382 -14.910646 -6.216876 -5.570690 14.630841 -33.898840 3.445401 3.158393 45.567320 3.564315 -1.739831 78.851413 0.578587 8.729970 -7.787985 0.001037 0.000458 0.000011 -0.000000 0.000000 -22.069453 -6.479015 5.243141 -0.000001 -0.000001 0.000021 -0.000000 0.000000 0.000001 -1.442637 -0.018697 -0.014869 -1.443431 -0.030980 -0.012902 -1.444184 -0.024047 -0.010586 -1.441699 -0.046805 -0.013866 0.000000 -0.000013 0.000002 0.000001 -0.000071 -0.000005 -0.000001 0.000011 -0.000001 -1.441431 0.003009 -0.027481 -1.441524 0.004001 -0.025625 -1.438402 -0.001491 -0.020577 
0.000000 0.000000 0.000000 0.000007 -0.000000 -0.000000 -0.000067 0.000027 0.000051 1.162651 -6.947259 0.047208 -39.532923 -1.438319 -2.707908 29.407817 2.519990 -3.325466 -21.738284 1.638081 -3.264460 -4.056935 1.729384 11.626231 34.024068 0.000768 -0.002449 0.000013 -0.000000 -0.000000 1.686325 -12.548440 7.961227 7.968067 1.170331 -3.694293 -0.721690 -0.506512 0.994049 -3.753788 0.185110 1.309624 -6.624954 1.153876 0.742063 -3.699460 1.166270 -2.405549 1.926455 0.095028 -1.204270 5.261705 -0.401184 2.798599 6.205665 -0.705220 5.203665 5.724890 -0.431341 7.532728 0.000002 -0.000002 -0.000004 26.529100 25.603188 -17.452919 10.929845 3.027048 18.778292 -42.315689 -0.700838 -5.789523 36.561183 -15.060799 1.256849 7.522766 -0.000144 -0.000092 -0.000036 -0.000000 -0.000000 4.337479 -6.320233 -1.143265 -8.025616 6.629481 0.958205 -4.603506 6.401343 -0.139907 6.355612 -5.229487 0.752185 -0.000000 -0.000023 -0.000013 41.515246 8.391699 -3.071353 -5.243158 -8.574298 4.216794 39.333909 -2.083104 -4.126805 -84.911197 0.894960 -1.856380 -32.412304 -6.448735 0.336958 -57.886024 -0.003774 0.001400 0.000010 0.000000 0.000000 -0.222818 0.000178 -0.011122 -4.754137 -0.044439 -0.065974 -1.162525 -0.026998 -0.018443 2.460051 -0.060987 0.079516 0.734109 0.159260 -0.052091 -0.000058 -0.000012 -0.000018 -1.732782 -0.163693 -0.119265 -0.000087 0.000072 0.000069 0.000063 -0.000031 -0.000067 -0.000015 0.000009 -0.000000 0.000004 0.000054 0.000048 -0.000001 -0.000000 0.000000 0.000002 0.000055 0.000043 -0.000001 0.000001 -0.000002 0.000005 0.000000 0.000000 -0.000037 0.000018 0.000109 0.000033 0.000094 -0.000070 -0.000010 -0.000007 -0.000006 -19.075677 1.078605 -14.997545 -8.195080 -5.061458 14.699127 -31.262585 3.208043 3.208059 41.184914 3.125333 -1.497103 72.508107 -0.982714 7.949609 -6.486159 0.000867 0.000370 0.000033 -0.000000 0.000000 -21.702255 -6.217755 5.118803 -0.000001 -0.000001 0.000021 -0.000000 0.000000 -0.000000 -1.635528 -0.017012 -0.026266 -1.635071 -0.031976 -0.024705 -1.636348 -0.022230 -0.023608 -1.630897 -0.046112 -0.023539 0.000000 -0.000014 0.000002 0.000001 -0.000136 -0.000009 -0.000001 0.000006 -0.000002 -1.634631 0.002538 -0.036274 -1.630548 0.005716 -0.037072 -1.630350 -0.003731 -0.031247 
0.000000 0.000000 0.000000 0.000007 -0.000000 -0.000000 -0.000087 0.000031 0.000051 1.361516 -6.463425 0.044973 -38.586700 -1.557465 -2.185398 31.440416 2.757538 -3.592978 -23.109361 1.832821 -3.465906 -3.286948 1.114606 10.895867 31.596851 0.000763 -0.002264 0.000020 0.000000 -0.000000 1.638350 -10.792327 8.173949 8.167170 0.929581 -3.528950 -0.775545 -0.439036 0.919895 -3.871661 0.303376 1.184036 -6.700661 1.287979 0.495244 -3.456293 1.232588 -2.771536 2.114053 0.054881 -1.068551 4.731755 -0.342261 3.767544 5.719259 -0.645104 5.030771 5.039779 -0.358963 6.740656 0.000000 -0.000001 -0.000004 24.870664 24.091525 -17.845275 9.940736 3.245285 21.029539 -48.529495 -0.439991 -6.626505 47.766699 -13.255732 0.987473 11.237888 -0.000217 -0.000130 -0.000026 0.000000 0.000000 4.459382 -5.882676 -1.083089 -8.177908 6.153001 0.912614 -5.347555 5.899154 -0.135802 6.926145 -4.806448 0.765558 -0.000001 -0.000023 -0.000013 42.155811 8.386782 -3.329791 -5.280313 -8.527141 4.337856 37.522092 -1.776884 -4.138618 -77.451866 1.070341 -1.322450 -36.271627 -6.245395 -0.284074 -54.490696 -0.003531 0.001432 0.000004 0.000000 0.000000 -0.700713 -0.003644 -0.018776 -5.189657 -0.048772 -0.074039 -0.822831 -0.019373 -0.012291 2.741250 -0.060028 0.077273 0.709605 0.150029 -0.047136 -0.000057 -0.000022 -0.000036 -1.603578 -0.158946 -0.120380 -0.000102 0.000071 0.000088 0.000053 -0.000048 -0.000077 0.000001 -0.000001 0.000005 -0.000009 0.000054 0.000048 0.000000 -0.000000 0.000000 0.000000 0.000059 0.000038 -0.000011 0.000003 -0.000005 0.000018 0.000000 -0.000000 -0.000058 0.000052 0.000043 0.000015 0.000111 -0.000065 -0.000018 -0.000011 -0.000004 -17.576945 0.404325 -15.037093 -9.731475 -4.631030 14.762228 -27.913229 2.416443 3.295957 40.378060 3.047514 -1.454920 57.645950 -3.215070 6.510148 -3.762317 0.000505 0.000199 0.000009 -0.000000 0.000000 -21.050131 -5.770648 4.898184 -0.000001 -0.000001 0.000021 -0.000000 0.000000 -0.000002 -1.877746 -0.020526 -0.039189 -1.877831 -0.029945 -0.041935 -1.879329 -0.021819 -0.036508 -1.876684 -0.041167 -0.040851 0.000000 -0.000013 0.000001 0.000000 -0.000004 -0.000000 -0.000001 -0.000005 -0.000001 -1.877845 -0.000669 -0.052186 -1.872006 0.002391 -0.051506 -1.873180 -0.005762 -0.047250 
0.000000 0.000000 0.000000 0.000007 -0.000000 -0.000000 -0.000190 0.000031 0.000051 1.538863 -5.954496 0.036810 -36.978446 -1.824598 -1.622600 32.750532 2.959221 -3.962775 -24.489227 1.975990 -3.718658 -2.313263 0.561111 10.252092 29.055420 0.000748 -0.002070 0.000025 0.000000 -0.000000 1.598059 -9.104891 8.320041 8.357300 0.688455 -3.353889 -0.825712 -0.376845 0.850247 -3.984650 0.406163 1.077157 -6.781094 1.386910 0.330396 -3.254506 1.250186 -2.957268 2.272453 0.023701 -0.966624 4.313478 -0.304161 4.303708 5.278773 -0.598991 4.845993 4.346895 -0.307490 6.178818 0.000004 -0.000001 -0.000006 22.245646 22.668454 -17.477476 9.236151 3.363875 22.566228 -52.778180 -0.210351 -7.181417 57.369764 -11.909948 0.547139 14.536198 -0.000284 -0.000160 -0.000009 -0.000000 -0.000000 4.546459 -5.417461 -1.015761 -8.259730 5.652905 0.863396 -5.996171 5.377049 -0.141345 7.401342 -4.371449 0.765703 -0.000000 -0.000022 -0.000013 42.631363 8.412210 -3.559697 -5.342684 -8.510696 4.405654 32.681376 -1.475427 -4.177101 -65.288576 1.307352 -0.643403 -39.579888 -5.983764 -0.664061 -49.078683 -0.003140 0.001454 0.000007 0.000000 0.000000 -1.203733 -0.011024 -0.026176 -5.554559 -0.049178 -0.082272 -0.409728 -0.011826 -0.000143 3.043580 -0.061707 0.077540 0.681675 0.135960 -0.043441 -0.000055 -0.000043 -0.000072 -1.470256 -0.150719 -0.120933 -0.000073 0.000083 0.000068 0.000036 -0.000089 -0.000095 0.000016 -0.000011 -0.000002 -0.000026 0.000053 0.000048 0.000001 -0.000000 -0.000000 0.000002 0.000067 0.000029 0.000004 0.000007 -0.000009 -0.000017 -0.000000 -0.000000 -0.000033 0.000116 -0.000032 -0.000004 0.000157 -0.000043 0.000001 0.000001 -0.000003 -16.761252 0.137297 -15.130252 -10.510070 -4.414896 14.846951 -22.293434 1.743315 3.335422 38.781254 2.891675 -1.370534 38.498542 -4.994298 4.164369 -0.067124 0.000002 -0.000006 -0.000029 0.000000 -0.000000 -20.165401 -5.199432 4.596383 -0.000007 -0.000001 0.000020 -0.000001 0.000000 -0.000001 -2.141548 -0.020680 -0.055640 -2.140505 -0.029652 -0.056463 -2.136616 -0.035407 -0.057017 -2.137768 -0.038691 -0.058290 -0.000013 -0.000014 0.000000 0.000001 -0.000001 0.000001 0.000001 0.000004 -0.000002 -2.138356 -0.001314 -0.067716 -2.139007 0.000036 -0.066511 -2.138387 -0.007412 -0.062894 
0.000000 0.000000 0.000000 0.000007 -0.000000 -0.000000 0.000037 0.000027 0.000051 1.684529 -5.427854 0.025447 -34.466367 -2.265934 -0.936532 33.007391 3.112729 -4.543685 -26.060571 2.207162 -3.943218 -0.915466 0.052260 9.782008 26.427165 0.000725 -0.001872 0.000019 0.000000 -0.000000 1.564911 -7.547841 8.382815 8.523888 0.457908 -3.183786 -0.867028 -0.320381 0.794227 -4.085634 0.488028 0.993068 -6.858177 1.446944 0.236001 -3.081022 1.235124 -2.984267 2.392603 -0.000204 -0.886839 3.986465 -0.283537 4.455807 4.903438 -0.561721 4.627958 3.750690 -0.220093 5.838198 0.000004 -0.000001 -0.000008 19.148831 21.311770 -16.665105 8.801216 3.422961 23.477773 -55.316445 -0.053157 -7.502268 65.084524 -10.996578 0.081463 17.218820 -0.000340 -0.000182 -0.000009 0.000000 -0.000000 4.577030 -4.934597 -0.948921 -8.257198 5.138109 0.801368 -6.514631 4.838386 -0.151630 7.756984 -3.928934 0.748495 -0.000000 -0.000022 -0.000013 42.421438 8.352613 -3.640174 -5.226415 -8.401302 4.354634 27.945145 -1.173228 -4.173786 -55.100492 1.437922 -0.245183 -38.645528 -5.736629 -0.469412 -42.652660 -0.002676 0.001431 0.000005 0.000000 0.000000 -1.707047 -0.015587 -0.037756 -5.813296 -0.051694 -0.087081 0.048882 -0.003095 0.007753 3.342421 -0.058523 0.078436 0.650176 0.123658 -0.036824 -0.000054 -0.000086 -0.000144 -1.328760 -0.145903 -0.121902 -0.000095 0.000089 0.000067 -0.000020 -0.000149 -0.000137 0.000003 -0.000000 -0.000004 -0.000005 0.000054 0.000048 -0.000000 -0.000000 0.000000 0.000004 0.000081 0.000011 -0.000003 0.000014 -0.000018 0.000008 0.000000 0.000000 -0.000058 -0.000015 0.000132 -0.000069 0.000220 -0.000003 -0.000013 -0.000009 -0.000003 -16.459446 0.401676 -14.547717 -10.436199 -4.371739 14.219481 -14.758079 1.690165 3.051901 32.521884 2.310582 -1.075256 21.930166 -5.239938 1.816591 3.737726 -0.000529 -0.000182 -0.000006 -0.000000 -0.000000 -19.097933 -4.547939 4.232756 -0.000000 -0.000001 0.000019 -0.000001 0.000000 0.000003 -2.401381 -0.020079 -0.074930 -2.402112 -0.025062 -0.073341 -2.402393 -0.017721 -0.072812 -2.399458 -0.035661 -0.076113 0.000001 -0.000013 -0.000000 -0.000000 -0.000003 0.000000 0.000001 0.000002 -0.000002 -2.399348 -0.005275 -0.083699 -2.396267 -0.003257 -0.083512 -2.395381 -0.006495 -0.078815 
